<?xml version="1.0" encoding="UTF-8"?>
<svg width="18" height="18" viewBox="0 0 12 12" version="1.1" xmlns="http://www.w3.org/2000/svg" xmlns:xlink="http://www.w3.org/1999/xlink">
    <!-- Generator: Sketch 64 (93537) - https://sketch.com -->
    <title>Group</title>
    <desc>Created with Sketch.</desc>
    <g id="Page-1" stroke="none" stroke-width="1" fill="none" fill-rule="evenodd">
        <g id="Artboard" transform="translate(-108.000000, -87.000000)">
            <g id="Group" transform="translate(105.000000, 84.000000)">
                <rect id="Rectangle" x="0" y="0" width="18" height="18"></rect>
                <g id="a-link" transform="translate(3.000000, 3.000000)" fill="#181616">
                    <g id="a">
                        <path d="M6,-1.52353141e-05 C3.05603935,-0.00139325484 0.545947161,2.13332376 0.0745713883,5.03930228 C-0.396804384,7.94528079 1.30979869,10.7639836 4.10325,11.69325 C4.40325,11.74875 4.51275,11.5635 4.51275,11.4045 C4.51275,11.262 4.5075,10.88475 4.5045,10.38375 C2.83575,10.746 2.484,9.57975 2.484,9.57975 C2.37406332,9.21622418 2.13752119,8.90411629 1.81725,8.7 C1.27275,8.325 1.8585,8.3355 1.8585,8.3355 C2.24303795,8.39000429 2.58107588,8.61849801 2.775,8.955 C2.93864122,9.25448765 3.21551697,9.47587004 3.54367014,9.56960796 C3.87182331,9.66334587 4.2238585,9.62161372 4.521,9.45375 C4.54832093,9.14961488 4.68344906,8.86526062 4.902,8.652 C3.56925,8.502 2.169,7.98525 2.169,5.6865 C2.16026033,5.09038772 2.38128876,4.51378014 2.78625,4.07625 C2.60460134,3.55818258 2.62740102,2.99033641 2.85,2.4885 C2.85,2.4885 3.35325,2.32725 4.5,3.1035 C5.48318212,2.83449841 6.52056788,2.83449841 7.50375,3.1035 C8.64975,2.32725 9.15375,2.4885 9.15375,2.4885 C9.37489977,2.99087017 9.39635474,3.55862222 9.21375,4.07625 C9.61686327,4.51450287 9.83575546,5.09114279 9.825,5.6865 C9.825,7.99125 8.4225,8.49825 7.08525,8.64675 C7.37506336,8.94110423 7.52353913,9.34633646 7.4925,9.75825 C7.4925,10.56 7.48575,11.20725 7.48575,11.40825 C7.48575,11.568 7.59375,11.75475 7.89825,11.69625 C10.6968024,10.770243 12.4081653,7.94849265 11.9359331,5.03878796 C11.4637008,2.12908327 8.94776885,-0.00659570837 6,-1.52353141e-05 Z" id="Path"></path>
                    </g>
                </g>
            </g>
        </g>
    </g>
</svg>