<?xml version="1.0" standalone="no"?>
<!DOCTYPE svg PUBLIC "-//W3C//DTD SVG 20010904//EN"
 "http://www.w3.org/TR/2001/REC-SVG-20010904/DTD/svg10.dtd">
<svg version="1.0" xmlns="http://www.w3.org/2000/svg"
 width="1384.000000pt" height="1384.000000pt" viewBox="0 0 1384.000000 1384.000000"
 preserveAspectRatio="xMidYMid meet">
<metadata>
Created by potrace 1.11, written by Peter Selinger 2001-2013
</metadata>
<g transform="translate(0.000000,1384.000000) scale(0.100000,-0.100000)"
fill="#000000" stroke="none">
<path d="M7681 11739 c-41 -10 -85 -26 -98 -34 -13 -9 -23 -13 -23 -10 0 3
-26 -11 -57 -30 -55 -35 -203 -178 -203 -196 0 -5 -10 -26 -23 -47 -25 -39
-63 -154 -71 -210 -2 -19 -7 -36 -10 -39 -2 -3 -1 -16 5 -30 6 -16 5 -31 -1
-44 -8 -13 -7 -19 0 -19 8 0 8 -6 0 -20 -8 -14 -8 -20 0 -20 8 0 8 -6 0 -20
-8 -14 -8 -20 0 -20 7 0 8 -7 3 -17 -10 -22 -10 -54 0 -70 4 -6 3 -14 -2 -18
-7 -4 -7 -15 -1 -30 6 -16 6 -25 0 -25 -6 0 -6 -9 0 -25 6 -15 6 -26 0 -30 -7
-4 -6 -13 0 -26 6 -10 7 -19 3 -19 -4 0 -8 -11 -8 -25 0 -14 3 -25 6 -25 3 0
3 -22 -1 -50 -4 -27 -3 -50 2 -50 5 0 4 -9 -2 -19 -7 -14 -7 -22 0 -26 7 -5 8
-11 1 -19 -6 -7 -6 -17 -1 -26 5 -9 5 -19 -1 -26 -7 -8 -6 -14 1 -19 7 -4 7
-12 0 -25 -7 -13 -7 -21 0 -25 7 -4 7 -12 0 -25 -6 -10 -6 -21 -1 -24 4 -3 5
-24 1 -46 -4 -22 -3 -40 2 -40 5 0 4 -9 -2 -19 -7 -14 -7 -22 0 -26 7 -5 8
-11 1 -19 -6 -7 -6 -17 -1 -26 5 -9 5 -19 -1 -26 -7 -8 -6 -14 1 -19 7 -4 7
-12 0 -25 -7 -13 -7 -21 0 -25 7 -4 7 -12 0 -25 -6 -11 -6 -21 -1 -24 5 -3 5
-21 1 -40 -4 -20 -3 -39 2 -44 6 -6 6 -12 -1 -16 -7 -5 -7 -15 -1 -31 6 -16 6
-25 0 -25 -6 0 -6 -9 0 -25 6 -15 6 -26 0 -30 -7 -4 -6 -13 0 -26 6 -10 7 -19
3 -19 -4 0 -8 -11 -8 -25 0 -14 2 -25 5 -25 7 0 4 -66 -5 -79 -3 -6 -1 -11 5
-11 8 0 8 -6 0 -20 -8 -14 -8 -20 0 -20 8 0 8 -6 0 -20 -8 -14 -8 -20 0 -20 7
0 8 -7 3 -17 -10 -22 -10 -54 0 -70 4 -6 3 -14 -3 -18 -7 -4 -7 -12 0 -25 7
-13 7 -21 0 -25 -6 -4 -7 -13 -1 -23 6 -11 6 -24 0 -35 -7 -11 -6 -17 1 -17 7
0 8 -6 0 -19 -7 -13 -7 -22 0 -26 7 -4 7 -12 0 -25 -6 -10 -6 -21 -1 -24 9 -6
7 -48 -4 -65 -3 -6 -1 -11 5 -11 8 0 8 -6 0 -20 -8 -14 -8 -20 0 -20 8 0 8 -6
0 -20 -8 -14 -8 -20 0 -20 7 0 8 -7 3 -17 -10 -22 -10 -54 0 -70 4 -6 3 -14
-2 -18 -7 -4 -7 -15 -1 -30 6 -16 6 -25 0 -25 -6 0 -6 -9 0 -25 6 -15 6 -26 0
-30 -7 -4 -6 -13 0 -26 6 -10 7 -19 3 -19 -4 0 -8 -11 -8 -25 0 -14 3 -25 6
-25 3 0 3 -20 -1 -45 -4 -24 -3 -48 3 -54 5 -5 5 -11 -2 -15 -7 -5 -7 -15 -1
-31 6 -16 6 -25 0 -25 -6 0 -6 -9 0 -25 6 -15 6 -26 0 -30 -7 -4 -6 -13 0 -26
6 -10 7 -19 3 -19 -4 0 -8 -11 -8 -25 0 -14 2 -25 5 -25 7 0 4 -66 -5 -79 -3
-6 -1 -11 5 -11 8 0 8 -6 0 -20 -8 -14 -8 -20 0 -20 8 0 8 -6 0 -20 -8 -14 -8
-20 0 -20 7 0 8 -7 3 -17 -10 -22 -10 -54 0 -70 4 -6 3 -14 -3 -18 -7 -4 -7
-12 0 -25 7 -13 7 -21 0 -25 -6 -4 -7 -13 -1 -23 6 -11 6 -24 0 -35 -7 -11 -6
-17 1 -17 7 0 8 -6 0 -19 -7 -13 -7 -22 0 -26 7 -4 7 -12 0 -25 -6 -10 -6 -21
-1 -24 9 -6 7 -48 -4 -65 -3 -6 -1 -11 5 -11 8 0 8 -6 0 -20 -8 -14 -8 -20 0
-20 8 0 8 -6 0 -20 -8 -14 -8 -20 0 -20 7 0 8 -7 3 -17 -10 -22 -10 -54 0 -70
4 -6 3 -14 -2 -18 -7 -4 -7 -15 -1 -30 6 -16 6 -25 0 -25 -6 0 -6 -9 0 -25 6
-15 6 -26 0 -30 -7 -4 -6 -13 0 -26 6 -10 7 -19 3 -19 -4 0 -8 -11 -8 -25 0
-14 3 -25 6 -25 3 0 3 -22 -1 -50 -4 -27 -3 -50 2 -50 5 0 4 -9 -2 -19 -7 -14
-7 -22 0 -26 7 -5 8 -11 1 -19 -6 -7 -6 -17 -1 -26 5 -9 5 -19 -1 -26 -7 -8
-6 -14 1 -19 7 -4 7 -12 0 -25 -7 -13 -7 -21 0 -25 7 -4 7 -12 0 -25 -6 -10
-6 -21 -1 -24 4 -3 5 -24 1 -46 -4 -22 -3 -40 2 -40 5 0 4 -9 -2 -19 -7 -14
-7 -22 0 -26 7 -5 8 -11 1 -19 -6 -7 -6 -17 -1 -26 5 -9 5 -19 -1 -26 -7 -8
-6 -14 1 -19 7 -4 7 -12 0 -25 -7 -13 -7 -21 0 -25 7 -4 7 -12 0 -25 -6 -11
-6 -21 -1 -24 5 -3 5 -21 1 -40 -4 -20 -3 -39 2 -44 6 -6 6 -12 -1 -16 -7 -5
-7 -15 -1 -31 6 -16 6 -25 0 -25 -6 0 -6 -9 0 -25 6 -15 6 -26 0 -30 -7 -4 -6
-13 0 -26 6 -10 7 -19 3 -19 -4 0 -8 -11 -8 -25 0 -14 2 -25 5 -25 7 0 4 -66
-5 -79 -3 -6 -1 -11 5 -11 8 0 8 -6 0 -20 -8 -14 -8 -20 0 -20 8 0 8 -6 0 -20
-8 -14 -8 -20 0 -20 7 0 8 -7 3 -17 -10 -22 -10 -54 0 -70 4 -6 3 -14 -3 -18
-7 -4 -7 -12 0 -25 7 -13 7 -21 0 -25 -6 -4 -7 -13 -1 -23 6 -11 6 -24 0 -35
-7 -11 -6 -17 1 -17 7 0 8 -6 0 -19 -7 -13 -7 -22 0 -26 7 -4 7 -12 0 -25 -6
-10 -6 -21 -1 -24 9 -6 7 -48 -4 -65 -3 -6 -1 -11 5 -11 8 0 8 -6 0 -20 -8
-14 -8 -20 0 -20 8 0 8 -6 0 -20 -8 -14 -8 -20 0 -20 7 0 8 -7 3 -17 -10 -22
-10 -54 0 -70 4 -6 3 -14 -2 -18 -7 -4 -7 -15 -1 -30 6 -16 6 -25 0 -25 -6 0
-6 -9 0 -25 6 -15 6 -26 0 -30 -7 -4 -6 -13 0 -26 6 -10 7 -19 3 -19 -4 0 -8
-11 -8 -25 0 -14 3 -25 6 -25 3 0 3 -22 -1 -50 -4 -27 -3 -50 2 -50 5 0 4 -9
-2 -19 -7 -14 -7 -22 0 -26 7 -5 8 -11 1 -19 -6 -7 -6 -17 -1 -26 5 -9 5 -19
-1 -26 -7 -8 -6 -14 1 -19 7 -4 7 -12 0 -25 -7 -13 -7 -21 0 -25 7 -4 7 -12 0
-25 -6 -10 -6 -21 -1 -24 4 -3 5 -24 1 -46 -4 -22 -3 -40 2 -40 5 0 4 -9 -2
-19 -7 -14 -7 -22 0 -26 7 -5 8 -11 1 -19 -6 -7 -6 -17 -1 -26 5 -9 5 -19 -1
-26 -7 -8 -6 -14 1 -19 7 -4 7 -12 0 -25 -7 -13 -7 -21 0 -25 7 -4 7 -12 0
-25 -6 -11 -6 -21 -1 -24 5 -3 5 -21 1 -40 -4 -20 -3 -39 2 -44 6 -6 6 -12 -1
-16 -7 -5 -7 -15 -1 -31 6 -16 6 -25 0 -25 -6 0 -6 -9 0 -25 6 -15 6 -26 0
-30 -7 -4 -6 -13 0 -26 6 -10 7 -19 3 -19 -4 0 -8 -11 -8 -25 0 -14 2 -25 5
-25 7 0 4 -66 -5 -79 -3 -6 -1 -11 5 -11 8 0 8 -6 0 -20 -8 -14 -8 -20 0 -20
8 0 8 -6 0 -20 -8 -14 -8 -20 0 -20 7 0 8 -7 3 -17 -10 -22 -10 -54 0 -70 4
-6 3 -14 -3 -18 -7 -4 -7 -12 0 -25 7 -13 7 -21 0 -25 -6 -4 -7 -13 -1 -23 6
-11 6 -24 0 -35 -7 -11 -6 -17 1 -17 7 0 8 -6 0 -19 -7 -13 -7 -22 0 -26 7 -4
7 -12 0 -25 -6 -10 -6 -21 -1 -24 9 -6 7 -48 -4 -65 -3 -6 -1 -11 5 -11 8 0 8
-6 0 -20 -8 -14 -8 -20 0 -20 8 0 8 -6 0 -20 -8 -14 -8 -20 0 -20 7 0 8 -7 3
-18 -10 -21 -10 -53 0 -69 4 -6 3 -14 -2 -18 -7 -4 -7 -15 -1 -30 6 -16 6 -25
0 -25 -6 0 -6 -9 0 -25 6 -15 6 -26 0 -30 -7 -4 -6 -13 0 -26 6 -10 7 -19 3
-19 -4 0 -8 -11 -8 -25 0 -14 3 -25 6 -25 3 0 3 -22 -1 -50 -4 -27 -3 -50 2
-50 5 0 4 -9 -2 -19 -7 -14 -7 -22 0 -26 7 -5 8 -11 1 -19 -6 -7 -6 -17 -1
-26 5 -9 5 -19 -1 -26 -7 -8 -6 -14 1 -19 7 -4 7 -12 0 -25 -7 -13 -7 -21 0
-25 7 -4 7 -12 0 -25 -6 -10 -6 -21 -1 -24 4 -3 5 -24 1 -46 -4 -22 -3 -40 2
-40 5 0 4 -9 -2 -19 -7 -14 -7 -22 0 -26 7 -5 8 -11 1 -19 -6 -7 -6 -17 -1
-26 5 -9 5 -19 -1 -26 -7 -8 -6 -14 1 -19 7 -4 7 -12 0 -25 -7 -13 -7 -21 0
-25 7 -4 7 -12 0 -25 -6 -11 -6 -21 -1 -24 5 -3 5 -21 1 -40 -4 -20 -3 -39 2
-44 6 -6 6 -12 -1 -16 -7 -5 -7 -15 -1 -31 6 -16 6 -25 0 -25 -6 0 -6 -9 -1
-23 5 -13 5 -30 1 -37 -5 -8 -5 -19 1 -26 7 -8 6 -14 -1 -19 -6 -3 -8 -10 -5
-15 3 -5 8 -34 10 -64 5 -69 20 -128 51 -194 13 -29 24 -57 24 -62 0 -6 4 -10
9 -10 5 0 13 -9 16 -20 9 -28 160 -180 179 -180 9 0 16 -4 16 -8 0 -5 30 -22
68 -39 66 -31 79 -35 137 -49 17 -4 143 -9 280 -11 198 -2 264 0 315 13 77 18
212 82 256 121 69 61 80 72 99 97 11 15 26 33 33 41 6 7 12 18 12 23 0 5 7 15
15 22 8 7 15 21 15 31 0 11 3 19 8 19 15 0 64 190 62 240 0 17 0 48 3 128 1
28 -2 52 -6 52 -5 0 -6 4 -3 9 3 4 5 44 5 87 0 87 1 95 4 172 1 28 -2 52 -6
52 -5 0 -6 4 -3 9 3 4 5 44 5 87 0 87 1 95 4 172 1 28 0 52 -3 52 -6 0 -3 138
4 155 2 7 1 18 -4 25 -4 7 -4 25 0 40 4 15 4 46 0 69 -4 22 -5 41 -1 41 6 0 6
127 0 210 -2 21 -1 42 3 45 3 3 2 21 -2 40 -4 19 -5 36 -3 39 8 8 9 196 1 196
-4 0 -4 10 1 23 5 12 5 31 1 42 -4 11 -5 24 -2 29 5 9 5 55 -1 91 -2 11 -1 34
3 51 4 18 4 38 0 44 -4 7 -4 25 0 40 4 15 4 46 0 69 -4 22 -5 41 -1 41 6 0 6
127 0 210 -2 21 -1 42 3 45 3 3 2 21 -2 40 -4 19 -5 36 -3 39 8 8 9 196 1 196
-4 0 -4 10 1 23 5 12 5 31 1 42 -4 11 -5 24 -2 29 5 9 5 55 -1 91 -2 11 -1 34
3 51 4 18 4 38 0 44 -4 7 -4 25 0 40 4 15 4 46 0 69 -4 22 -5 41 -1 41 6 0 6
127 0 210 -2 21 -1 42 3 45 3 3 2 22 -2 41 -4 19 -4 36 0 39 4 2 4 22 1 42 -4
21 -4 52 0 70 3 17 3 37 -1 44 -4 6 -4 24 0 39 4 15 4 46 0 69 -4 22 -5 41 -1
41 6 0 6 127 0 210 -2 21 -1 42 3 45 3 3 2 21 -2 40 -4 19 -5 36 -3 39 8 8 9
196 1 196 -4 0 -4 10 1 23 5 12 5 31 1 42 -4 11 -5 24 -2 29 5 9 5 55 -1 91
-2 11 -1 34 3 51 4 18 4 38 0 44 -4 7 -4 25 0 40 4 15 4 46 0 69 -4 22 -5 41
-1 41 6 0 6 127 0 210 -2 21 -1 42 3 45 3 3 2 21 -2 40 -4 19 -5 36 -3 39 8 8
9 196 1 196 -4 0 -4 10 1 23 5 12 5 31 1 42 -4 11 -5 24 -2 29 5 9 5 55 -1 91
-2 11 -1 34 3 51 4 18 4 38 0 44 -4 7 -4 25 0 40 4 15 4 46 0 69 -4 22 -5 41
-1 41 6 0 6 127 0 210 -2 21 -1 42 3 45 3 3 2 22 -2 41 -4 19 -4 36 0 39 4 2
4 22 1 42 -4 21 -4 52 0 70 3 17 3 37 -1 44 -4 6 -4 24 0 39 4 15 4 46 0 69
-4 22 -5 41 -1 41 6 0 6 127 0 210 -2 21 -1 42 3 45 3 3 2 21 -2 40 -4 19 -5
36 -3 39 8 8 9 196 1 196 -4 0 -4 10 1 23 5 12 5 31 1 42 -4 11 -5 24 -2 29 5
9 5 55 -1 91 -2 11 -1 34 3 51 4 18 4 38 0 44 -4 7 -4 25 0 40 4 15 4 46 0 69
-4 22 -5 41 -1 41 6 0 6 127 0 210 -2 21 -1 42 3 45 3 3 2 21 -2 40 -4 19 -5
36 -3 39 8 8 9 196 1 196 -4 0 -4 10 1 23 5 12 5 31 1 42 -4 11 -5 24 -2 29 5
9 5 55 -1 91 -2 11 -1 34 3 51 4 18 4 38 0 44 -4 7 -4 25 0 40 4 15 4 46 0 69
-4 22 -5 41 -1 41 5 0 6 249 1 270 -1 3 -3 25 -5 49 -2 24 -12 69 -21 100 -10
31 -17 59 -16 64 1 4 -3 7 -8 7 -5 0 -9 3 -8 8 2 4 -12 34 -31 67 -43 75 -160
193 -226 225 -27 14 -53 28 -56 33 -3 5 -12 10 -20 11 -12 2 -77 21 -119 34
-8 3 -132 6 -275 8 -230 2 -269 0 -334 -17z"/>
<path d="M9855 11744 c-87 -20 -216 -88 -280 -146 -61 -55 -145 -166 -145
-191 0 -8 -7 -20 -15 -27 -9 -7 -14 -15 -11 -17 2 -3 -2 -19 -10 -38 -14 -35
-23 -76 -30 -140 -5 -52 -5 -250 1 -295 10 -82 14 -99 26 -122 7 -12 11 -23
10 -23 -1 0 2 -13 8 -28 6 -16 11 -31 11 -34 0 -15 94 -143 132 -179 38 -36
142 -114 152 -114 2 0 21 -8 42 -17 22 -9 41 -17 44 -18 3 -1 25 -7 49 -14 24
-7 73 -15 109 -17 36 -3 68 -7 70 -9 2 -2 14 0 27 5 14 5 26 5 33 -2 6 -6 12
-6 16 1 5 7 15 7 31 1 15 -6 25 -6 25 0 0 5 12 5 28 1 15 -4 41 -4 57 -1 17 4
38 3 48 -2 9 -5 17 -5 17 -1 0 4 11 8 25 8 14 0 25 -3 25 -7 0 -4 14 -3 30 2
19 5 30 5 30 -1 0 -6 6 -6 18 0 10 5 24 6 32 1 7 -4 24 -4 36 0 13 5 26 6 28
1 6 -9 54 -6 63 3 3 3 14 1 24 -5 11 -5 19 -6 19 -2 0 10 41 10 57 0 5 -4 13
-4 17 0 9 10 56 10 56 0 0 -4 8 -3 18 2 11 6 24 6 35 0 9 -6 17 -6 17 -2 0 9
108 8 117 -1 2 -2 18 0 34 4 16 5 29 6 29 2 0 -4 16 -7 35 -7 19 0 35 2 35 5
0 3 11 5 25 5 14 0 25 -3 25 -7 0 -4 14 -3 30 2 19 5 30 5 30 -1 0 -6 6 -6 18
0 11 6 24 6 34 0 10 -6 19 -6 23 0 4 7 15 7 30 1 15 -6 25 -6 25 0 0 5 12 5
30 0 17 -5 30 -6 30 -2 0 4 11 7 25 7 14 0 25 -4 25 -8 0 -4 8 -3 18 2 10 5
24 6 31 2 7 -5 30 -5 51 -1 21 4 44 4 51 -1 7 -4 20 -4 29 1 9 5 23 4 33 -1 9
-6 17 -6 17 -1 0 9 53 8 69 -2 5 -4 12 -2 16 3 4 7 15 7 30 1 15 -6 25 -6 25
0 0 5 12 5 30 0 17 -5 30 -5 30 -1 0 8 42 7 57 -2 7 -4 14 -3 17 2 4 5 18 6
34 2 15 -4 39 -4 55 0 15 4 27 3 27 -1 0 -5 14 -5 30 0 17 5 30 5 30 1 0 -4
22 -5 50 -1 27 3 55 3 62 -1 6 -4 19 -4 28 1 9 5 23 4 33 -1 9 -6 17 -6 17 -1
0 9 53 8 69 -2 5 -4 12 -2 16 3 4 7 15 7 30 1 15 -6 25 -6 25 0 0 5 12 5 30 0
17 -5 30 -5 30 -1 0 8 42 7 57 -2 7 -4 14 -3 17 2 4 5 18 6 34 2 15 -4 39 -4
55 0 15 4 27 3 27 -1 0 -5 14 -5 30 0 17 5 30 5 30 2 0 -9 69 -7 77 2 3 3 14
1 24 -5 11 -5 19 -6 19 -2 0 10 41 10 57 0 5 -4 13 -4 17 0 9 10 56 10 56 0 0
-4 8 -3 18 2 11 6 24 6 35 0 9 -6 17 -6 17 -1 0 4 19 7 43 5 95 -8 138 -5 226
12 41 8 128 39 142 52 9 7 18 11 21 8 3 -3 11 1 18 10 7 8 17 15 22 15 27 0
171 147 207 212 18 31 31 59 29 61 -2 2 2 10 8 18 13 15 31 72 42 129 9 45 9
355 0 400 -4 19 -12 53 -19 75 -7 22 -13 42 -14 45 -5 20 -51 100 -57 100 -4
0 -8 7 -8 16 0 28 -150 166 -220 204 -36 19 -68 35 -72 36 -5 1 -9 2 -10 4 -3
2 -12 4 -93 25 -87 21 -3387 21 -3480 -1z"/>
<path d="M9946 7363 c-3 -4 -22 -8 -40 -10 -19 -1 -53 -9 -77 -18 -24 -8 -51
-15 -60 -15 -9 0 -22 -7 -29 -15 -7 -8 -19 -15 -27 -15 -23 0 -132 -81 -185
-137 -38 -42 -112 -154 -113 -173 0 -3 -3 -9 -6 -15 -41 -67 -61 -278 -44
-465 5 -61 6 -66 25 -130 7 -25 13 -48 12 -52 -1 -5 3 -8 9 -8 5 0 7 -4 4 -10
-3 -5 -1 -10 6 -10 7 0 9 -3 6 -6 -4 -4 2 -19 13 -34 11 -16 20 -33 20 -39 0
-14 176 -191 191 -191 6 0 23 -9 39 -20 15 -11 30 -17 34 -13 3 3 6 1 6 -6 0
-7 5 -9 10 -6 6 3 10 1 10 -4 0 -6 3 -10 8 -9 8 2 63 -12 77 -20 9 -6 33 -10
87 -15 15 -2 30 -6 33 -9 4 -3 19 -2 35 2 16 4 31 6 34 3 7 -7 96 -9 96 -2 0
3 15 4 33 2 29 -3 46 -3 97 -3 8 0 33 0 55 -1 22 0 45 0 50 1 26 4 107 2 112
-4 3 -3 13 -1 22 4 10 5 23 5 30 1 7 -5 27 -5 45 -1 17 4 40 4 51 0 11 -4 29
-4 41 0 11 5 27 4 36 -1 10 -6 19 -6 22 0 4 5 18 6 34 2 15 -5 37 -5 48 -1 11
5 26 5 33 1 6 -4 32 -5 56 -1 24 4 50 3 59 -2 8 -5 17 -4 21 2 4 6 11 7 17 4
13 -8 98 -11 98 -3 0 3 15 4 33 2 29 -3 46 -3 97 -3 8 0 33 0 55 -1 22 0 45 0
50 1 26 4 107 2 112 -4 3 -3 13 -1 22 4 10 5 23 5 30 1 7 -5 27 -5 45 -1 17 4
40 4 51 0 11 -4 29 -4 41 0 11 5 27 4 36 -1 10 -6 19 -6 22 0 4 5 18 6 34 2
15 -5 37 -5 48 -1 11 5 26 5 33 1 6 -4 32 -5 56 -1 24 4 50 3 59 -2 8 -5 17
-4 21 2 4 6 11 7 17 4 13 -8 98 -11 98 -3 0 3 15 4 33 2 29 -3 46 -3 97 -3 8
0 33 0 55 -1 22 0 45 0 50 1 6 1 33 1 60 0 28 0 56 0 63 0 24 0 42 0 55 -1 17
-2 138 9 165 15 33 7 95 27 112 37 8 4 39 20 69 36 63 32 164 126 213 198 57
83 93 185 103 294 3 29 8 57 11 62 3 5 1 9 -4 9 -6 0 -7 14 -2 34 4 19 4 40 0
47 -5 7 -4 22 0 35 5 12 7 24 5 26 -2 2 -7 31 -10 64 -7 77 -11 98 -23 121
-11 20 -12 24 -12 52 0 11 -6 26 -13 33 -15 15 -31 49 -28 61 0 4 -6 10 -14
13 -8 4 -15 12 -15 19 0 39 -208 217 -268 230 -10 2 -33 10 -52 18 -40 17 -90
28 -137 30 -18 1 -33 4 -33 8 0 3 -18 3 -40 -1 -22 -4 -40 -5 -40 -1 0 3 -11
6 -25 6 -14 0 -25 -4 -25 -8 0 -4 -7 -4 -16 1 -9 5 -34 6 -55 2 -21 -4 -39 -5
-39 -1 0 3 -11 6 -25 6 -14 0 -25 -4 -25 -8 0 -4 -7 -4 -16 1 -9 5 -34 6 -55
2 -21 -4 -39 -5 -39 -1 0 3 -11 6 -25 6 -14 0 -25 -4 -25 -8 0 -4 -7 -4 -16 1
-9 5 -34 6 -55 2 -21 -4 -39 -5 -39 -1 0 3 -11 6 -25 6 -14 0 -25 -4 -25 -8 0
-4 -7 -4 -16 1 -9 5 -34 6 -55 2 -21 -4 -39 -5 -39 -1 0 3 -11 6 -25 6 -14 0
-25 -4 -25 -8 0 -4 -7 -4 -16 1 -9 5 -34 6 -55 2 -21 -4 -39 -5 -39 -1 0 3
-11 6 -25 6 -14 0 -25 -3 -25 -7 0 -4 -7 -5 -15 -2 -23 9 -174 10 -168 2 2 -5
-6 -4 -19 1 -30 11 -39 11 -60 0 -12 -7 -18 -6 -18 1 0 7 -6 8 -19 0 -13 -7
-22 -7 -26 0 -4 7 -13 7 -26 0 -13 -8 -19 -7 -19 0 0 7 -6 8 -19 1 -10 -6 -21
-8 -24 -5 -8 9 -88 10 -93 2 -3 -5 -10 -5 -16 -2 -15 9 -147 11 -141 2 2 -5
-8 -3 -24 3 -30 11 -30 11 -55 -2 -12 -7 -18 -6 -18 1 0 7 -6 8 -19 0 -13 -7
-22 -7 -26 0 -4 7 -13 7 -26 0 -13 -8 -19 -7 -19 0 0 7 -6 8 -19 1 -10 -6 -21
-8 -24 -5 -8 9 -88 10 -93 2 -3 -5 -10 -5 -16 -2 -15 9 -147 11 -141 2 2 -5
-6 -4 -19 1 -30 11 -39 11 -60 0 -12 -7 -18 -6 -18 1 0 7 -6 8 -19 0 -13 -7
-22 -7 -26 0 -4 7 -13 7 -26 0 -13 -8 -19 -7 -19 0 0 7 -6 8 -19 1 -10 -6 -21
-8 -24 -5 -8 9 -88 10 -93 2 -3 -5 -10 -5 -17 -1 -13 8 -117 7 -125 -1 -3 -3
-10 -1 -17 4 -7 5 -15 7 -19 3z"/>
<path d="M647 3364 c-2 -3 -31 -7 -63 -9 -70 -5 -97 -10 -155 -30 -75 -27
-164 -81 -224 -137 -60 -55 -135 -156 -135 -181 0 -8 -6 -20 -14 -26 -8 -6
-16 -24 -19 -39 -3 -15 -12 -54 -21 -86 -26 -102 -11 -288 28 -365 9 -17 17
-34 17 -38 1 -27 72 -127 135 -189 55 -55 94 -83 156 -113 158 -77 -64 -71
2648 -71 2147 0 2443 2 2500 16 71 16 230 89 230 104 0 6 6 10 13 10 7 0 42
31 79 69 47 49 78 93 107 152 39 82 75 204 65 221 -3 4 0 8 6 8 6 0 8 5 5 11
-10 16 -12 79 -2 79 4 0 5 6 0 13 -4 6 -8 22 -9 33 -2 44 -27 144 -35 144 -5
0 -8 3 -7 8 5 15 -32 90 -66 135 -20 26 -36 52 -36 57 0 6 -3 10 -7 10 -5 0
-28 19 -53 42 -68 63 -170 124 -191 115 -3 -1 -13 4 -23 12 -19 16 -80 30
-149 35 -26 2 -50 6 -54 9 -3 4 -14 2 -24 -4 -11 -5 -19 -6 -19 -2 0 10 -61
10 -77 0 -6 -4 -14 -3 -18 2 -3 7 -15 7 -30 1 -15 -6 -27 -6 -30 0 -4 7 -13 6
-26 0 -14 -8 -19 -7 -19 1 0 8 -4 9 -13 0 -8 -6 -16 -8 -20 -5 -8 8 -80 9 -94
1 -6 -4 -15 -3 -18 3 -5 8 -11 8 -20 0 -9 -8 -15 -8 -20 0 -4 7 -12 7 -26 0
-12 -7 -19 -7 -19 -1 0 7 -8 7 -24 1 -13 -5 -26 -7 -29 -4 -8 8 -95 10 -90 2
2 -5 -7 -4 -21 2 -16 6 -26 6 -26 0 0 -5 -7 -7 -15 -4 -23 9 -164 10 -159 2 3
-4 -5 -4 -18 1 -13 4 -35 5 -50 0 -16 -4 -28 -5 -28 -1 0 4 -11 7 -25 7 -14 0
-25 -3 -25 -7 0 -4 -8 -4 -17 -1 -9 4 -29 7 -43 7 -14 0 -34 -3 -43 -7 -9 -3
-17 -2 -17 4 0 6 -7 6 -19 -1 -13 -7 -22 -7 -26 0 -4 7 -13 7 -26 0 -13 -8
-19 -7 -19 0 0 7 -6 8 -19 1 -10 -6 -21 -8 -24 -5 -8 9 -81 9 -94 1 -6 -4 -15
-3 -18 3 -5 8 -11 8 -20 0 -9 -8 -15 -8 -20 0 -4 7 -12 7 -26 0 -12 -7 -19 -7
-19 -1 0 7 -8 7 -24 1 -13 -5 -26 -7 -29 -4 -8 8 -95 10 -90 2 2 -5 -7 -4 -21
2 -16 6 -26 6 -26 0 0 -5 -7 -7 -15 -4 -23 9 -164 10 -159 2 3 -4 -5 -4 -18 1
-13 4 -35 5 -50 0 -16 -4 -28 -5 -28 -1 0 4 -11 7 -25 7 -14 0 -25 -3 -25 -7
0 -4 -8 -4 -17 -1 -9 4 -29 7 -43 7 -14 0 -34 -3 -43 -7 -9 -3 -17 -2 -17 4 0
6 -7 6 -19 -1 -13 -7 -22 -7 -26 0 -4 7 -13 7 -26 0 -13 -8 -19 -7 -19 0 0 7
-6 8 -19 1 -10 -6 -21 -8 -24 -5 -8 9 -81 9 -94 1 -6 -4 -15 -3 -18 3 -5 8
-11 8 -20 0 -9 -8 -15 -8 -20 0 -4 7 -12 7 -26 0 -12 -7 -19 -7 -19 -1 0 7 -8
7 -24 1 -13 -5 -26 -7 -29 -4 -8 8 -95 10 -90 2 2 -5 -7 -4 -21 2 -16 6 -26 6
-26 0 0 -5 -7 -7 -15 -4 -23 9 -164 10 -159 2 3 -4 -5 -4 -18 1 -13 4 -35 5
-50 0 -16 -4 -28 -5 -28 -1 0 4 -11 7 -25 7 -14 0 -25 -3 -25 -7 0 -4 -8 -4
-17 -1 -9 4 -29 7 -43 7 -14 0 -34 -3 -43 -7 -9 -3 -17 -2 -17 4 0 6 -7 6 -19
-1 -13 -7 -22 -7 -26 0 -4 7 -13 7 -26 0 -13 -8 -19 -7 -19 0 0 7 -6 8 -19 1
-10 -6 -21 -8 -24 -5 -8 9 -81 9 -94 1 -6 -4 -15 -3 -18 3 -5 8 -11 8 -20 0
-9 -8 -15 -8 -20 0 -4 7 -12 7 -26 0 -12 -7 -19 -7 -19 -1 0 7 -8 7 -24 1 -13
-5 -26 -7 -29 -4 -8 8 -95 10 -90 2 2 -5 -7 -4 -21 2 -16 6 -26 6 -26 0 0 -5
-7 -7 -15 -4 -23 9 -164 10 -159 2 3 -4 -5 -4 -18 1 -13 4 -35 5 -50 0 -16 -4
-28 -5 -28 -1 0 4 -11 7 -25 7 -14 0 -25 -3 -25 -7 0 -4 -8 -4 -17 -1 -22 8
-64 8 -86 0 -9 -3 -17 -2 -17 4 0 6 -7 6 -19 -1 -13 -7 -22 -7 -26 0 -4 7 -13
7 -26 0 -13 -8 -19 -7 -19 0 0 7 -6 8 -19 1 -10 -6 -21 -8 -24 -5 -8 9 -81 9
-94 1 -6 -4 -15 -3 -18 3 -5 8 -11 8 -20 0 -9 -8 -15 -8 -20 0 -4 7 -12 7 -26
0 -12 -7 -19 -7 -19 -1 0 7 -8 7 -24 1 -13 -5 -26 -7 -29 -4 -8 8 -95 10 -90
2 2 -5 -7 -4 -21 2 -16 6 -26 6 -26 0 0 -5 -7 -7 -15 -4 -23 9 -164 10 -158 2
2 -5 -7 -4 -20 1 -14 6 -27 8 -30 5z"/>
</g>
</svg>
